# AST/ASF file generated using VICON BodyLanguage
# -----------------------------------------------
:version 1.10
:name VICON
:units
  mass 1.0
  length 0.45
  angle deg
:documentation
   .ast/.asf automatically generated from VICON data using
   VICON BodyBuilder and BodyLanguage model FoxedUp or BRILLIANT.MOD
:root
   order TX TY TZ RX RY RZ
   axis XYZ
   position 0 0 0  
   orientation 0 0 0 
:bonedata
  begin
     id 1 
     name lhipjoint
     direction 0.78388 -0.462562 0.414208 
     length 3.01181 
     axis 0 0 0  XYZ
  end
  begin
     id 2 
     name lfemur
     direction 0.34202 -0.939693 0  
     length 6.04673  
     axis 0 0 20  XYZ
    dof rx ry rz
    limits (-160.0 20.0)
           (-70.0 70.0)
           (-60.0 70.0)
  end
  begin
     id 3 
     name ltibia
     direction 0.34202 -0.939693 0   
     length 7.211   
     axis 0 0 20   XYZ
    dof rx
    limits (-10.0 170.0)
  end
  begin
     id 4 
     name lfoot
     direction 0.121887 -0.334882 0.934344   
     length 2.13567   
     axis -90 7.62852e-016 20   XYZ
    dof rx rz
    limits (-45.0 90.0)
           (-70.0 20.0)
  end
  begin
     id 5 
     name ltoes
     direction 1.53555e-011 -4.2179e-011 1   
     length 1.05957   
     axis -90 7.62852e-016 20   XYZ
    dof rx
    limits (-90.0 20.0)
  end
  begin
     id 6 
     name rhipjoint
     direction -0.769387 -0.475875 0.426129   
     length 2.92756  
     axis 0 0 0  XYZ 
  end
  begin
     id 7 
     name rfemur
     direction -0.34202 -0.939693 0   
     length 6.35468   
     axis 0 0 -20   XYZ
    dof rx ry rz
    limits (-160.0 20.0)
           (-70.0 70.0)
           (-70.0 60.0)
  end
  begin
     id 8 
     name rtibia
     direction -0.34202 -0.939693 0   
     length 7.37886   
     axis 0 0 -20   XYZ
    dof rx
    limits (-10.0 170.0)
 end
 begin
     id 9 
     name rfoot
     direction -0.101763 -0.279592 0.954711   
     length 2.21478  
     axis -90 -7.62852e-016 -20   XYZ
    dof rx rz
    limits (-45.0 90.0)
           (-20.0 70.0)
  end
  begin
     id 10 
     name rtoes
     direction -1.53494e-011 -4.21851e-011 1   
     length 1.10506   
     axis -90 -7.62852e-016 -20   XYZ
    dof rx
    limits (-90.0 20.0)
  end
  begin
     id 11 
     name lowerback
     direction 0.00747405 0.999267 0.0375481   
     length 2.13259   
     axis 0 0 0   XYZ
    dof rx ry rz
    limits (-20.0 45.0)
           (-30.0 30.0)
           (-30.0 30.0)
  end
  begin
     id 12 
     name upperback
     direction 0.00661626 0.996177 0.0871029   
     length 2.10528   
     axis 0 0 0   XYZ
    dof rx ry rz
    limits (-20.0 45.0)
           (-30.0 30.0)
           (-30.0 30.0)
  end
  begin
     id 13 
     name thorax
     direction 0.00320659 0.997679 0.0680167   
     length 2.11338   
     axis 0 0 0   XYZ
    dof rx ry rz
    limits (-20.0 45.0)
           (-30.0 30.0)
           (-30.0 30.0)
  end
  begin
     id 14 
     name lowerneck
     direction 0.0374841 0.973033 0.227602   
     length 1.42765   
     axis 0 0 0   XYZ
    dof rx ry rz
    limits (-20.0 45.0)
           (-30.0 30.0)
           (-30.0 30.0)
  end
  begin
     id 15 
     name upperneck
     direction 0.00481585 0.989155 -0.146795   
     length 1.47593   
     axis 0 0 0   XYZ
    dof rx ry rz
    limits (-20.0 45.0)
           (-30.0 30.0)
           (-30.0 30.0)
  end
  begin
     id 16
     name head
     direction -0.00292522 0.997206 -0.0746423  
     length 1.48116  
     axis 0 0 0   XYZ
    dof rx ry rz
    limits (-20.0 45.0)
           (-30.0 30.0)
           (-30.0 30.0)
  end
  begin
     id 17 
     name lclavicle
     direction 0.951444 0.305606 0.0368784  
     length 3.01855  
     axis 0 0 0   XYZ
    dof ry rz
    limits (-20.0 10.0)
           (0.0 20.0)
  end
  begin
     id 18 
     name lhumerus
     direction 1 -4.48977e-011 2.61664e-027   
     length 5.52731   
     axis 180 -30 -90   XYZ
    dof rx ry rz
    limits (-60.0 90.0)
           (-90.0 90.0)
           (-90.0 90.0)
  end
  begin
     id 19
     name lradius
     direction 1 -4.48944e-011 8.22157e-027   
     length 3.11059   
     axis 180 -30 -90   XYZ
    dof rx
    limits (-10.0 170.0)
  end
  begin
     id 20
     name lwrist
     direction 1 -4.48976e-011 1.5779e-026   
     length 1.5553   
     axis -1.15221e-014 90 90   XYZ
    dof ry
    limits (-180.0 0.0)
 end
  begin
     id 21 
     name lhand
     direction 1 -4.49025e-011 3.1558e-026   
     length 0.419626   
     axis -2.01367e-014 90 90   XYZ
    dof rx rz
    limits (-90.0 90.0)
           (-45.0 45.0)
  end
  begin
     id 22 
     name lfingers
     direction 1 -4.4904e-011 6.31161e-026   
     length 0.338313   
     axis -4.02734e-014 90 90   XYZ
    dof rx
    limits (0.0 90.0)
  end
  begin
     id 23
     name lthumb
     direction 0.707107 -6.35004e-011 0.707107   
     length 0.485752   
     axis -90 45 2.85299e-015   XYZ
    dof rx rz
    limits (-45.0 45.0)
           (-45.0 45.0)
  end
  begin
     id 24 
     name rclavicle
     direction -0.968876 0.223791 0.105816   
     length 3.04177  
     axis 0 0 0   XYZ 
    dof ry rz
    limits (-10.0 20.0)
           (-20.0 0.0)
  end
  begin
     id 25 
     name rhumerus
     direction -1 -4.48962e-011 -1.01384e-027  
     length 5.25396   
     axis 180 30 90   XYZ
    dof rx ry rz
    limits (-90.0 60.0)
           (-90.0 90.0)
           (-90.0 90.0)
  end
  begin
     id 26 
     name rradius
     direction -1 -4.48955e-011 8.88542e-027   
     length 3.10567   
     axis 180 30 90   XYZ
    dof rx
    limits (-10.0 170.0)
  end
  begin
     id 27 
     name rwrist
     direction -1 -4.48994e-011 1.5779e-026   
     length 1.55283   
     axis -1.15221e-014 -90 -90   XYZ
    dof ry
    limits (-180.0 0.0)
  end
  begin
     id 28
     name rhand
     direction -1 -4.48891e-011 3.1558e-026   
     length 0.498676   
     axis -2.01367e-014 -90 -90   XYZ
    dof rx rz
    limits (-90.0 90.0)
           (-45.0 45.0)
  end
  begin
     id 29
     name rfingers
     direction -1 -4.48972e-011 6.31161e-026   
     length 0.402045   
     axis -4.02734e-014 -90 -90   XYZ
    dof rx
    limits (0.0 90.0)
  end
  begin
     id 30
     name rthumb
     direction -0.707107 -6.34849e-011 0.707107   
     length 0.577259   
     axis -90 -45 -2.85299e-015   XYZ
    dof rx rz
    limits (-45.0 45.0)
           (-45.0 45.0)
  end
:hierarchy
  begin
    root lhipjoint rhipjoint lowerback
    lhipjoint lfemur
    lfemur ltibia
    ltibia lfoot
    lfoot ltoes
    rhipjoint rfemur
    rfemur rtibia
    rtibia rfoot
    rfoot rtoes
    lowerback upperback
    upperback thorax
    thorax lowerneck lclavicle rclavicle
    lowerneck upperneck
    upperneck head
    lclavicle lhumerus
    lhumerus lradius
    lradius lwrist
    lwrist lhand lthumb
    lhand lfingers
    rclavicle rhumerus
    rhumerus rradius
    rradius rwrist
    rwrist rhand rthumb
    rhand rfingers
  end

#!OML:ASF H:\Pregnant\Project 1\Capture day 1\Session 1\femalepreg.ASF
:FULLY-SPECIFIED
:DEGREES
232
root 5.24102 11.45 20.3328 -73.4808 6.16164 -176.57
lowerback 12.6552 -0.5836 -4.30414
upperback -1.02943 -1.39648 0.245239
thorax -8.11272 -0.471621 2.96342
lowerneck -46.0593 0.923446 -0.071248
upperneck 1.73715 3.62972 2.74519
head 6.72551 3.17635 1.74543
rclavicle 1.90833e-014 1.59028e-015
rhumerus 87.6625 -7.37827 -52.8947
rradius 29.2564
rwrist 0.185713
rhand -56.9204 -27.9962
rfingers 7.12502
rthumb -29.2155 -55.7226
lclavicle 1.90833e-014 1.59028e-015
lhumerus 69.232 11.2933 52.0505
lradius 42.5282
lwrist 26.9382
lhand -48.1113 -69.4737
lfingers 7.12502
lthumb -20.7754 -40.5659
rfemur -110.739 -7.08842 1.05357
rtibia 88.6982
rfoot -31.627 7.37533
rtoes -37.443
lfemur -80.5559 -10.4537 0.718281
ltibia 35.6132
lfoot -27.0914 13.4725
ltoes -30.673
233
root 5.2417 11.4553 20.3322 -73.1381 6.12546 -176.823
lowerback 12.4436 -0.794363 -4.23638
upperback -0.993367 -1.66079 0.145205
thorax -7.93563 -0.609294 2.86166
lowerneck -46.7213 1.12246 0.290254
upperneck 2.22149 3.67469 2.80588
head 6.96184 3.21022 1.74409
rclavicle 1.11319e-014 8.34896e-015
rhumerus 87.8915 -7.70686 -52.9362
rradius 29.2839
rwrist -0.208545
rhand -56.8465 -28.1987
rfingers 7.12502
rthumb -29.1449 -55.9375
lclavicle 1.11319e-014 8.34896e-015
lhumerus 69.4186 11.5516 51.1994
lradius 42.4436
lwrist 27.2818
lhand -48.108 -69.5081
lfingers 7.12502
lthumb -20.7722 -40.6
rfemur -109.632 -6.67335 -0.347608
rtibia 87.4794
rfoot -31.697 5.91041
rtoes -37.9344
lfemur -80.8987 -10.2637 0.522954
ltibia 35.3456
lfoot -26.8397 12.8871
ltoes -30.8567
234
root 5.24264 11.4604 20.3317 -72.8258 6.07063 -177.058
lowerback 12.2495 -0.972127 -4.17113
upperback -0.991876 -1.88233 0.0697532
thorax -7.80992 -0.72398 2.77936
lowerneck -47.2498 1.28679 0.570368
upperneck 2.69955 3.69627 2.8776
head 7.18442 3.22717 1.75256
rclavicle -2.46493e-014 -1.74931e-014
rhumerus 88.0169 -7.98032 -52.981
rradius 29.3147
rwrist -0.523938
rhand -56.7699 -28.3857
rfingers 7.12502
rthumb -29.0718 -56.1371
lclavicle -2.46493e-014 -1.74931e-014
lhumerus 69.5803 11.7232 50.4663
lradius 42.3284
lwrist 27.5552
lhand -48.1201 -69.5373
lfingers 7.12502
lthumb -20.7838 -40.6304
rfemur -108.579 -6.20709 -1.62582
rtibia 86.2303
rfoot -31.6689 4.29212
rtoes -38.2957
lfemur -81.2036 -10.0843 0.365247
ltibia 35.0846
lfoot -26.6136 12.3345
ltoes -31.0195
235
root 5.2438 11.4647 20.3313 -72.5626 5.99794 -177.29
lowerback 12.0912 -1.11018 -4.10573
upperback -1.0382 -2.05261 0.034936
thorax -7.7597 -0.81082 2.73207
lowerneck -47.5874 1.38175 0.707294
upperneck 3.14412 3.68441 2.96736
head 7.37776 3.22033 1.77857
rclavicle -2.3059e-014 -6.36111e-015
rhumerus 88.0217 -8.17375 -52.9995
rradius 29.3291
rwrist -0.73762
rhand -56.6987 -28.5495
rfingers 7.12502
rthumb -29.0037 -56.3126
lclavicle -2.3059e-014 -6.36111e-015
lhumerus 69.7036 11.7801 49.8958
lradius 42.1806
lwrist 27.7468
lhand -48.1362 -69.5464
lfingers 7.12502
lthumb -20.7992 -40.6412
rfemur -107.551 -5.71377 -2.76863
rtibia 84.9601
rfoot -31.6008 2.55263
rtoes -38.6159
lfemur -81.4678 -9.93591 0.2491
ltibia 34.8474
lfoot -26.4189 11.8183
ltoes -31.1572
236
root 5.24553 11.467 20.3326 -72.3337 5.91381 -177.516
lowerback 11.9508 -1.208 -4.04988
upperback -1.13482 -2.17155 0.0444074
thorax -7.77616 -0.869628 2.72927
lowerneck -47.7298 1.39543 0.680985
upperneck 3.53253 3.64177 3.07792
head 7.5326 3.19173 1.82559
rclavicle 1.43125e-014 -1.98785e-015
rhumerus 87.9244 -8.2838 -52.9788
rradius 29.3134
rwrist -0.853033
rhand -56.6306 -28.7063
rfingers 7.12502
rthumb -28.9387 -56.4806
lclavicle 1.43125e-014 -1.98785e-015
lhumerus 69.7862 11.7232 49.4973
lradius 42.0085
lwrist 27.8773
lhand -48.1504 -69.5492
lfingers 7.12502
lthumb -20.8129 -40.6455
rfemur -106.556 -5.219 -3.76446
rtibia 83.6812
rfoot -31.5095 0.79913
rtoes -38.8218
lfemur -81.7118 -9.81522 0.180547
ltibia 34.6395
lfoot -26.2517 11.3497
ltoes -31.2727
237
root 5.24787 11.4679 20.3349 -72.1427 5.8216 -177.745
lowerback 11.8324 -1.26914 -4.00519
upperback -1.27368 -2.24383 0.0958356
thorax -7.8523 -0.902812 2.7706
lowerneck -47.6831 1.32954 0.500989
upperneck 3.84336 3.57282 3.20238
head 7.64124 3.14428 1.89
rclavicle -3.02153e-014 -2.14687e-014
rhumerus 87.7363 -8.32589 -52.9079
rradius 29.2687
rwrist -0.885039
rhand -56.5643 -28.8468
rfingers 7.12502
rthumb -28.8753 -56.6319
lclavicle -3.02153e-014 -2.14687e-014
lhumerus 69.8384 11.5566 49.2689
lradius 41.8149
lwrist 27.9469
lhand -48.1637 -69.5462
lfingers 7.12502
lthumb -20.8257 -40.6439
rfemur -105.601 -4.7368 -4.61028
rtibia 82.3976
rfoot -31.3886 -0.848019
rtoes -38.8562
lfemur -81.9308 -9.73239 0.161252
ltibia 34.4525
lfoot -26.1052 10.9368
ltoes -31.3892
238
root 5.25075 11.4688 20.3372 -71.9703 5.73162 -177.984
lowerback 11.716 -1.30596 -3.97605
upperback -1.44226 -2.28541 0.177014
thorax -7.96222 -0.918717 2.84766
lowerneck -47.4961 1.19889 0.19577
upperneck 4.08638 3.48352 3.34868
head 7.71124 3.08444 1.97294
rclavicle 1.27222e-014 -2.38542e-014
rhumerus 87.4887 -8.32449 -52.7976
rradius 29.2015
rwrist -0.859638
rhand -56.5032 -28.9739
rfingers 7.12502
rthumb -28.817 -56.769
lclavicle 1.27222e-014 -2.38542e-014
lhumerus 69.8737 11.3157 49.153
lradius 41.6098
lwrist 27.9888
lhand -48.1744 -69.5346
lfingers 7.12502
lthumb -20.836 -40.6335
rfemur -104.69 -4.25998 -5.36522
rtibia 81.1049
rfoot -31.2718 -2.41847
rtoes -38.8273
lfemur -82.1463 -9.6969 0.203194
ltibia 34.2792
lfoot -25.972 10.6002
ltoes -31.5212
